<svg id="Layer_3" data-name="Layer 3" xmlns="http://www.w3.org/2000/svg" viewBox="0 0 160 160"><defs><style>.cls-1{fill:#fff;}.cls-1,.cls-2,.cls-3,.cls-4,.cls-5{stroke:#335a89;}.cls-1,.cls-3,.cls-5{stroke-linecap:round;stroke-linejoin:round;}.cls-1,.cls-2,.cls-3{stroke-width:4px;}.cls-2{fill:#f47f8e;}.cls-2,.cls-4{stroke-miterlimit:10;}.cls-3{fill:#5daad3;}.cls-4,.cls-5{fill:#335a89;}.cls-4{stroke-width:0.8px;}.cls-5{stroke-width:4.8px;opacity:0.2;}</style></defs><title>MyWebsiteIcons</title><rect class="cls-1" x="61.64" y="45.48" width="32" height="73.6" transform="translate(80.92 -30.8) rotate(45)"/><path class="cls-2" d="M101.31,34.6h16a8,8,0,0,1,8,8v24a0,0,0,0,1,0,0h-32a0,0,0,0,1,0,0v-24a8,8,0,0,1,8-8Z" transform="translate(67.8 -62.48) rotate(45)"/><rect class="cls-3" x="82" y="53.92" width="32" height="16" transform="translate(72.48 -51.16) rotate(45)"/><polygon class="cls-1" points="62.98 119.67 35.2 124.71 40.24 96.93 62.98 119.67"/><polygon class="cls-4" points="49.38 121.91 35.49 124.43 38.01 110.54 49.38 121.91"/><path class="cls-5" d="M126.29,44.94l-69,69,5.66,5.66,63.36-63.36c3.12-3.12,3.37-7.95.54-10.77Z"/></svg>