<svg id="Layer_2" data-name="Layer 2" xmlns="http://www.w3.org/2000/svg" viewBox="0 0 160 160"><defs><style>.cls-1{fill:#5daad3;}.cls-1,.cls-2,.cls-3,.cls-4,.cls-5{stroke:#335a89;stroke-linecap:round;stroke-linejoin:round;}.cls-1,.cls-2,.cls-3{stroke-width:4px;}.cls-2,.cls-5{fill:none;}.cls-3{fill:#fff;}.cls-4{fill:#335a89;stroke-width:6px;opacity:0.2;}.cls-5{stroke-width:5.03px;}</style></defs><title>MyWebsiteIcons</title><polygon class="cls-1" points="160.83 162 -1.67 162 22.92 141.75 52 136.97 52.4 136.9 59 135.81 59 122 100 122 100 134.66 106.6 135.91 107 135.99 137.58 141.75 160.83 162"/><line class="cls-2" x1="59.04" y1="132.19" x2="100.96" y2="133.03"/><path class="cls-2" d="M59,134h42"/><path class="cls-3" d="M100,129v9a16,16,0,0,1-16,16H75a16,16,0,0,1-16-16v-9h41Z"/><path class="cls-4" d="M107,138v4.91A21.29,21.29,0,0,1,87,164c-0.27,0-.61,0-0.94,0H72.93c-0.33,0-.67,0-0.94,0A21.29,21.29,0,0,1,52,142.9v-4l7-1.09v-1.37c-2.29-1.39,43.9-1.7,42-.44l-1,.66,6.6,1.25Z"/><path class="cls-3" d="M116.93,105.14a5.23,5.23,0,0,0,3.64-3.18l4-10.24a10,10,0,0,0,.69-3.47l0-.91a10,10,0,0,0-1.48-5.41l0,0a6,6,0,0,0-6.66-2.66L90.46,86.37l8.61,23.11Z"/><path class="cls-3" d="M42.67,105a4.44,4.44,0,0,1-3.09-2.7l-4-10.3a11.93,11.93,0,0,1-.82-4.14V87.34a10,10,0,0,1,1.48-5.41l0,0a6,6,0,0,1,6.66-2.66l21.94,5.86a4.44,4.44,0,0,1,3,5.84l-5.52,14.83a4.44,4.44,0,0,1-5.21,2.77Z"/><path class="cls-3" d="M116,53v52c0,0.11,0,.23,0,0.34A35.35,35.35,0,0,1,106.85,129c-0.19.21-.38,0.41-0.58,0.61l0,0A31.81,31.81,0,0,1,101,134h0q-0.5.33-1,.63a29.71,29.71,0,0,1-3.81,1.95l0,0a0,0,0,0,0,0,0A30.3,30.3,0,0,1,84.24,139h-6.8c-0.42,0-.85,0-1.27,0-0.76,0-1.51-.08-2.26-0.17-0.2,0-.4.17-0.6,0.14a8.4,8.4,0,0,0-1,.07h0A41.11,41.11,0,0,1,60,134.21c-0.33-.2-0.65-0.5-1-0.71a36.74,36.74,0,0,1-5.5-4.44A33.79,33.79,0,0,1,43,105.13V53c0-10.66,9.94-19,20.6-19H98.08C108.74,34,116,42.35,116,53Z"/><circle class="cls-3" cx="64.31" cy="83.32" r="1.31"/><circle class="cls-3" cx="95.69" cy="83.32" r="1.31"/><path class="cls-1" d="M116,84.69V113c0,6-3.87,11.41-9,16l-0.37.33a4.09,4.09,0,0,1-.33.28l0,0a59,59,0,0,1-5.86,4.37l-0.39.25c-1.27.83-2.55,1.61-3.81,2.33l0,0a0,0,0,0,0,0,0c-7.07,4-13.6,6.39-14.82,6.39H78.69A85.76,85.76,0,0,1,59,134.44a53.33,53.33,0,0,1-6.6-4.65l-0.4-.34c-5.16-4.41-9-9.9-9-16.41V84.63l5.68,21.88,1.13,4.34c0,2.38,5.8,7.22,11.6,11.15,4.87,3.3,9.74,6,11.17,6a19.18,19.18,0,0,1,14.87,0h0c0.79,0,2.64-1,4.95-2h0c1.83-1,4-2.46,6.07-3.92,5.62-3.89,11.2-8.7,11.2-11.07l1-4.34Z"/><path class="cls-2" d="M86.9,99.58a11.74,11.74,0,0,1-13.8,0"/><path class="cls-1" d="M43,41.34c0,0.06,0,28.91,0,28.91L55.48,41.58l24,10.36,24.72-10.67,11.77,29V46.18a32.25,32.25,0,0,0-2.85-13.49,20.42,20.42,0,0,0-2.54-4.36c-2.71-3.24-6.39-6.63-9.84-6.46-7.15.35-24.42,2.2-33.71,3.23a50.94,50.94,0,0,0-15,4c-0.64.28-1.24,0.57-1.75,0.84a14,14,0,0,0-3.88,3"/><path class="cls-5" d="M80,106.19s5.5,3.93,8.06,4.76a14.3,14.3,0,0,0,12.71-1.84c2.91-2.08,4.63-4.74,4.63-7"/><path class="cls-5" d="M80,106.19s-5.5,3.93-8.06,4.76a14.3,14.3,0,0,1-12.71-1.84c-2.91-2.08-4.63-5.18-4.63-7"/><path class="cls-2" d="M68,72.69c-9-2.75-11.45,4.81-11.45,4.81"/><path class="cls-2" d="M92.52,72.69c9-2.75,11.45,4.81,11.45,4.81"/><line class="cls-2" x1="55.48" y1="41.58" x2="49.87" y2="39.02"/><line class="cls-2" x1="104.23" y1="41.27" x2="108.92" y2="39.16"/></svg>