<svg id="Layer_3" data-name="Layer 3" xmlns="http://www.w3.org/2000/svg" viewBox="0 0 160 160"><defs><style>.cls-1{fill:#5daad3;}.cls-1,.cls-2,.cls-3,.cls-5{stroke:#335a89;}.cls-1,.cls-2,.cls-3,.cls-4,.cls-5{stroke-linecap:round;stroke-linejoin:round;}.cls-1,.cls-2,.cls-4{stroke-width:4px;}.cls-2,.cls-3{fill:#fff;}.cls-3{stroke-width:3.2px;}.cls-4{fill:#0e90d8;stroke:#fff;}.cls-5{fill:#335a89;stroke-width:5px;opacity:0.2;}</style></defs><title>MyWebsiteIcons</title><rect class="cls-1" x="29" y="41" width="102" height="80" rx="4.8" ry="4.8"/><path class="cls-2" d="M33.08,41H126.4a4.6,4.6,0,0,1,4.6,4.6V61a0,0,0,0,1,0,0H29a0,0,0,0,1,0,0V45.08A4.08,4.08,0,0,1,33.08,41Z"/><circle class="cls-3" cx="39.64" cy="51" r="1.6"/><circle class="cls-3" cx="51.25" cy="51" r="1.6"/><circle class="cls-3" cx="63.54" cy="51" r="1.6"/><line class="cls-4" x1="39" y1="75" x2="79" y2="75"/><line class="cls-4" x1="39" y1="88" x2="79" y2="88"/><line class="cls-4" x1="39" y1="102" x2="59" y2="102"/><rect class="cls-5" x="108.5" y="41.5" width="22" height="80" rx="4.8" ry="4.8"/></svg>