<svg id="Layer_2" data-name="Layer 2" xmlns="http://www.w3.org/2000/svg" viewBox="0 0 160 160"><defs><style>.cls-1{fill:#f6cda6;}.cls-1,.cls-2,.cls-3,.cls-5,.cls-6{stroke:#1b2355;}.cls-1,.cls-2,.cls-3,.cls-4,.cls-5,.cls-6{stroke-linecap:round;stroke-linejoin:round;}.cls-1,.cls-2,.cls-3,.cls-4,.cls-5{stroke-width:2px;}.cls-2{fill:#1b2355;}.cls-3{fill:#315cc9;}.cls-4,.cls-5,.cls-6{fill:none;}.cls-4{stroke:#ce9e78;}.cls-6{stroke-width:4px;}</style></defs><title>zach-atar</title><path class="cls-1" d="M109.37,98.46a4.16,4.16,0,0,0,2.89-2.53L116,86.45a4.16,4.16,0,0,0,.08-4.48l-2.28-3.71a2.08,2.08,0,0,0-2.31-.92L88.32,83.53l6.84,18.38Z"/><path class="cls-1" d="M50.31,98.38a3.53,3.53,0,0,1-2.46-2.15L44,86.45A4.16,4.16,0,0,1,43.95,82l2.28-3.71a2.08,2.08,0,0,1,2.31-.92l19.39,5.18a3.53,3.53,0,0,1,2.4,4.65L65.93,99a3.53,3.53,0,0,1-4.14,2.2Z"/><path class="cls-1" d="M66,42H93.71A14.29,14.29,0,0,1,108,56.29V98.37A26.63,26.63,0,0,1,81.37,125H77.3A26.3,26.3,0,0,1,51,98.7V57A15,15,0,0,1,66,42Z"/><circle class="cls-2" cx="67.52" cy="81.11" r="1.04"/><circle class="cls-2" cx="92.48" cy="81.11" r="1.04"/><path class="cls-3" d="M108,82.15v22.59C108,118.34,83.31,128,81,128H79c-2.44,0-28-9.66-28-23.26V82.15h0l5.54,20.53c0,3.5,15.17,13.32,17.58,13.32h0a12.41,12.41,0,0,1,11.83,0h0c2.41,0,17-9.72,17-13.23l5-20.58v0Z"/><polyline class="cls-4" points="86.24 93.35 80 95.43 73.76 93.42"/><polyline class="cls-5" points="72 74 62.86 74 59.36 77.12"/><polyline class="cls-5" points="88 74 97.14 74 100.64 77.12"/><path class="cls-3" d="M60.93,47.21L51,70.71V47.83a10.28,10.28,0,0,1,.43-2.06,2.09,2.09,0,0,1,2.89-1.5Z"/><path class="cls-3" d="M108,47.83V70.71L98.57,47.21l8.53-3.87A10.23,10.23,0,0,1,108,47.83Z"/><path class="cls-3" d="M107.61,41.9a1.6,1.6,0,0,1-.73,2.15l-6.44,3.16L80,56.15,59.55,47.21l-7-3.13a1.59,1.59,0,0,1-.67-2.38c2.82-3.89,8.5-5.62,13.52-6.36,0,0,23.43-2.73,31.28-3.12C101.82,32,105.33,37.4,107.61,41.9Z"/><path class="cls-6" d="M80,99.29s4.37,3.13,6.41,3.79a11.37,11.37,0,0,0,10.1-1.46c2.31-1.65,3.68-3.77,3.68-5.54"/><path class="cls-6" d="M80,99.29s-4.37,3.13-6.41,3.79a11.37,11.37,0,0,1-10.1-1.46c-2.31-1.65-3.68-4.12-3.68-5.54"/></svg>