<?xml version="1.0" encoding="utf-8"?>
<!-- Generator: Adobe Illustrator 18.1.1, SVG Export Plug-In . SVG Version: 6.00 Build 0)  -->
<svg version="1.1" xmlns="http://www.w3.org/2000/svg" xmlns:xlink="http://www.w3.org/1999/xlink" x="0px" y="0px"
	 viewBox="0 0 160 160" enable-background="new 0 0 160 160" xml:space="preserve">
<g id="Layer_5">
	<path fill="#3498DB" d="M81.3,160h-2.7C35.2,160,0,124.8,0,81.3l0-2.7C0,35.2,35.2,0,78.7,0l2.7,0C124.8,0,160,35.2,160,78.7v2.7
		C160,124.8,124.8,160,81.3,160z"/>
	<path opacity="0.2" fill="#FFFFFF" d="M82.7,155h-5.4C37.4,155,5,122.6,5,82.7v-5.4C5,37.4,37.4,5,77.3,5h5.4
		C122.6,5,155,37.4,155,77.3v5.4C155,122.6,122.6,155,82.7,155z"/>
</g>
<g id="Layer_3">
	<circle fill="#FFFFFF" cx="80" cy="80" r="70"/>
</g>
<g id="Layer_4">
</g>
<g id="Layer_1">
</g>
<g id="Layer_2">
	<path fill="#E1BDA0" d="M108.2,97.7c1.3-0.3,2.3-1.2,2.8-2.4l3.6-9.1c0.9-1.3,0.9-3,0.1-4.3l-1.4-2.3c-0.9-1.5-2.7-2.2-4.4-1.8
		L88,83.3l6.6,17.7L108.2,97.7z"/>
	<path fill="#E1BDA0" d="M51.8,97.7c-1.3-0.3-2.3-1.2-2.8-2.4l-3.6-9.1c-0.9-1.3-0.9-3-0.1-4.3l1.4-2.3c0.9-1.5,2.7-2.2,4.4-1.8
		L72,83.3L65.4,101L51.8,97.7z"/>
	<path fill="#E1BDA0" d="M82.6,123h-5.2c-14,0-25.4-11.4-25.4-25.4V57.8C52,49.7,58.7,43,66.8,43h26.4c8.1,0,14.8,6.7,14.8,14.8
		v39.8C108,111.6,96.6,123,82.6,123z"/>
	<circle fill="#1B2355" stroke="#1B2355" stroke-width="2" stroke-miterlimit="10" cx="68" cy="81" r="1"/>
	<circle fill="#1B2355" stroke="#1B2355" stroke-width="2" stroke-miterlimit="10" cx="92" cy="81" r="1"/>
	<path fill="#315CC9" d="M108,82v21.7c0,13.1-24.8,22.3-27,22.3h-2c-2.3,0-27-9.2-27-22.3V82l0,0l5.4,20c0,3.4,4.1,6.2,8.6,9.5
		c2.9,2.1,6,5.5,8.3,5.5l0,0c3.6-1.9,7.8-1.9,11.4,0l0,0c2.3,0,5.4-3.4,8.3-5.5c4.5-3.3,8.6-6.1,8.6-9.5L108,82L108,82z"/>
	
		<polyline fill="none" stroke="#B27E5B" stroke-width="2" stroke-linecap="round" stroke-linejoin="round" stroke-miterlimit="10" points="
		86,93 80,95 74,93.1 	"/>
	<path fill="none" stroke="#1B2355" stroke-miterlimit="10" d="M57.5,100.9"/>
	<polyline fill="none" stroke="#1B2355" stroke-width="2" stroke-linecap="round" stroke-miterlimit="10" points="72,74 63.5,73 
		60,76 	"/>
	<polyline fill="none" stroke="#1B2355" stroke-width="2" stroke-linecap="round" stroke-miterlimit="10" points="88,74 96.5,73 
		100,76 	"/>
	<path fill="#315CC9" d="M109,49l-1.1,29l-8-28.8c-0.1-0.5,0.1-1,0.6-1.2l-0.8,0.3l-18.9,8.2c-0.5,0.2-1.1,0.2-1.6,0l-18.9-8.2
		l-1.6-0.7c0.9,0.4,1.4,1.4,1.1,2.4L52.1,78L51,49c0-0.7,0.1-1.3,0.2-2c0.3-1.3,1.6-2,2.8-1.4l0.2,0.1c-1.2-0.5-1.6-2.1-0.7-3.1
		c2.8-3.3,8-5.8,12.5-6.5c0,0,20.5-1.6,28.1-2c4.7-0.2,10,4.5,12.8,8.7c0.7,1,0.3,2.4-0.8,2.9c1.2-0.5,2.5,0.2,2.8,1.4
		C108.9,47.7,109,48.3,109,49z"/>
	<path fill="none" stroke="#1B2355" stroke-width="4" stroke-linecap="round" stroke-linejoin="round" stroke-miterlimit="10" d="
		M80.8,98.5c0,0,3.4,3,5.4,3.6c3.3,1.1,6.9,0.6,9.7-1.4c2.2-1.6,3.8-3.6,3.5-5.3"/>
	<path fill="none" stroke="#1B2355" stroke-width="4" stroke-linecap="round" stroke-linejoin="round" stroke-miterlimit="10" d="
		M79.2,98.5c0,0-3.4,3-5.4,3.6c-3.3,1.1-6.9,0.6-9.7-1.4c-2.2-1.6-3.8-3.6-3.5-5.3"/>
</g>
<g id="Layer_6">
</g>
</svg>
