<?xml version="1.0" encoding="utf-8"?>
<!-- Generator: Adobe Illustrator 18.1.1, SVG Export Plug-In . SVG Version: 6.00 Build 0)  -->
<svg version="1.1" xmlns="http://www.w3.org/2000/svg" xmlns:xlink="http://www.w3.org/1999/xlink" x="0px" y="0px"
	 viewBox="0 0 64 64" enable-background="new 0 0 64 64" xml:space="preserve">
<g id="top_row">
	
		<path fill="#FFFFFF" stroke="#FFFFFF" stroke-width="2" stroke-linecap="round" stroke-linejoin="round" stroke-miterlimit="10" d="
		M-116,58h-36c-1.1,0-2-0.9-2-2V12c0-1.1,0.9-2,2-2h36c1.1,0,2,0.9,2,2v44C-114,57.1-114.9,58-116,58z"/>
	
		<path fill="#FFFFFF" stroke="#FFFFFF" stroke-width="2" stroke-linecap="round" stroke-linejoin="round" stroke-miterlimit="10" d="
		M-118,43.2V8c0-1.1-0.9-2-2-2h-36c-1.1,0-2,0.9-2,2v44c0,1.1,0.9,2,2,2h27.2c0.5,0,1-0.2,1.4-0.6l8.8-8.8
		C-118.2,44.2-118,43.7-118,43.2z"/>
	
		<polygon fill="#FFFFFF" stroke="#FFFFFF" stroke-width="2" stroke-linecap="round" stroke-linejoin="round" stroke-miterlimit="10" points="
		-128,54 -128,44 -118,44 	"/>
	
		<line fill="none" stroke="#FFFFFF" stroke-width="2" stroke-linecap="round" stroke-linejoin="round" stroke-miterlimit="10" x1="-148" y1="15" x2="-128" y2="15"/>
	
		<line fill="none" stroke="#FFFFFF" stroke-width="2" stroke-linecap="round" stroke-linejoin="round" stroke-miterlimit="10" x1="-148" y1="22" x2="-128" y2="22"/>
	
		<line fill="none" stroke="#FFFFFF" stroke-width="2" stroke-linecap="round" stroke-linejoin="round" stroke-miterlimit="10" x1="-148" y1="30" x2="-136" y2="30"/>
	
		<path fill="#FFFFFF" stroke="#FFFFFF" stroke-width="2" stroke-linecap="round" stroke-linejoin="round" stroke-miterlimit="10" d="
		M-52,58L-52,58c-6.6,0-12-5.4-12-12V32c0-5.5,4.5-10,10-10h4c5.5,0,10,4.5,10,10v14C-40,52.6-45.4,58-52,58z"/>
	<path fill="none" stroke="#FFFFFF" stroke-width="2" stroke-linecap="round" stroke-linejoin="round" stroke-miterlimit="10" d="
		M-52,21v-5.2c0-1,0.9-1.8,2-1.8h2c1.1,0,2-0.9,2-1.9V7"/>
	<path fill="none" stroke="#FFFFFF" stroke-width="2" stroke-linecap="round" stroke-linejoin="round" stroke-miterlimit="10" d="
		M57,41H7V9c0-1.1,0.9-2,2-2h46c1.1,0,2,0.9,2,2V41z"/>
	<path fill="none" stroke="#FFFFFF" stroke-width="2" stroke-linecap="round" stroke-linejoin="round" stroke-miterlimit="10" d="
		M59,57H5c-2.2,0-4-1.8-4-4v-2h62v2C63,55.2,61.2,57,59,57z"/>
	
		<rect x="11" y="11" fill="none" stroke="#FFFFFF" stroke-width="2" stroke-linecap="round" stroke-linejoin="round" stroke-miterlimit="10" width="42" height="26"/>
	
		<polygon fill="none" stroke="#FFFFFF" stroke-width="2" stroke-linecap="round" stroke-linejoin="round" stroke-miterlimit="10" points="
		63,51 1,51 7.2,41 56.8,41 	"/>
	<polygon stroke="#FFFFFF" stroke-width="2" stroke-linecap="round" stroke-linejoin="round" stroke-miterlimit="10" points="38,51 
		26,51 27.2,49 36.8,49 	"/>
	
		<path fill="#FFFFFF" stroke="#FFFFFF" stroke-width="2" stroke-linecap="round" stroke-linejoin="round" stroke-miterlimit="10" d="
		M-51,53.7c0,0,7,0,7-7.7"/>
	
		<ellipse stroke="#FFFFFF" stroke-width="2" stroke-linecap="round" stroke-linejoin="round" stroke-miterlimit="10" cx="-52" cy="33" rx="1" ry="2"/>
</g>
<g id="Layer_2">
	<path fill="none" stroke="#FFFFFF" stroke-width="2" stroke-linecap="round" stroke-linejoin="round" stroke-miterlimit="10" d="
		M-115,140h-34V92h34c1.1,0,2,0.9,2,2v44C-113,139.1-113.9,140-115,140z"/>
	
		<rect x="-124" y="92" fill="none" stroke="#FFFFFF" stroke-width="2" stroke-linecap="round" stroke-linejoin="round" stroke-miterlimit="10" width="4" height="48"/>
	
		<rect x="-158" y="97" fill="none" stroke="#FFFFFF" stroke-width="2" stroke-linecap="round" stroke-linejoin="round" stroke-miterlimit="10" width="4" height="38"/>
	
		<rect x="-158" y="122" fill="none" stroke="#FFFFFF" stroke-width="2" stroke-linecap="round" stroke-linejoin="round" stroke-miterlimit="10" width="4" height="14"/>
	<polygon stroke="#FFFFFF" stroke-width="2" stroke-linecap="round" stroke-linejoin="round" stroke-miterlimit="10" points="
		-154,136 -156,140 -158,136 	"/>
	
		<rect x="-157" y="93" stroke="#FFFFFF" stroke-width="2" stroke-linecap="round" stroke-linejoin="round" stroke-miterlimit="10" width="2" height="4"/>
	
		<rect x="-160" y="100" stroke="#FFFFFF" stroke-width="2" stroke-linecap="round" stroke-linejoin="round" stroke-miterlimit="10" width="2" height="14"/>
	
		<path fill="#FFFFFF" stroke="#FFFFFF" stroke-width="2" stroke-linecap="round" stroke-linejoin="round" stroke-miterlimit="10" d="
		M57,104.4c0,0.9-0.7,1.6-1.6,1.6h-0.7c-0.9,0-1.6-0.7-1.6-1.6V89.6c0-0.9,0.7-1.6,1.6-1.6h0.7c0.9,0,1.6,0.7,1.6,1.6V104.4z"/>
	
		<path fill="#FFFFFF" stroke="#FFFFFF" stroke-width="2" stroke-linecap="round" stroke-linejoin="round" stroke-miterlimit="10" d="
		M50.4,98h-1.1c-1.1,0-2.3-0.9-2.3-2v-6c0-1.1,1.2-2,2.3-2h1.1c1.7,0,2.6,1.4,2.6,3V95C53,96.6,52.1,98,50.4,98z"/>
	
		<path fill="#FFFFFF" stroke="#FFFFFF" stroke-width="2" stroke-linecap="round" stroke-linejoin="round" stroke-miterlimit="10" d="
		M43,103.6c0-0.9-0.7-1.6-1.6-1.6h-0.7c-0.9,0-1.6,0.7-1.6,1.6v14.7c0,0.9,0.7,1.6,1.6,1.6h0.7c0.9,0,1.6-0.7,1.6-1.6V103.6z"/>
	
		<path fill="#FFFFFF" stroke="#FFFFFF" stroke-width="2" stroke-linecap="round" stroke-linejoin="round" stroke-miterlimit="10" d="
		M47.3,102h-1.1c-1.7,0-3.2,1.4-3.2,3v3.9c0,1.7,1.6,3,3.2,3h1.1c1.1,0,1.7-0.9,1.7-2v-6C49,102.9,48.4,102,47.3,102z"/>
	<path fill="none" stroke="#FFFFFF" stroke-width="2" stroke-linecap="round" stroke-linejoin="round" stroke-miterlimit="10" d="
		M41,120v20c0,2.2-1.7,4-3.9,4h-1c-2.3,0-4.1-1.8-4.1-4V97c0-2.2-1.8-4-4.1-4h-1c-2.3,0-3.9,1.8-3.9,4v31c0,2.2-2,4-4.3,4h-1
		c-2.3,0-3.7-1.8-3.7-4v-22c0-2.2-2.2-4-4.5-4H7"/>
	<path fill="none" stroke="#FFFFFF" stroke-width="2" stroke-linecap="round" stroke-linejoin="round" stroke-miterlimit="10" d="
		M55,107v12c0,6.6-5,12-11.8,12H42"/>
	
		<path fill="#FFFFFF" stroke="#FFFFFF" stroke-width="2" stroke-linecap="round" stroke-linejoin="round" stroke-miterlimit="10" d="
		M-48,140h-18c-4.4,0-8-3.6-8-8v-30c0-1.1,0.9-2,2-2h30c1.1,0,2,0.9,2,2v30C-40,136.4-43.6,140-48,140z"/>
	
		<line fill="none" stroke="#FFFFFF" stroke-width="2" stroke-linecap="round" stroke-linejoin="round" stroke-miterlimit="10" x1="-44" y1="107" x2="-44" y2="131"/>
	
		<line fill="none" stroke="#FFFFFF" stroke-width="2" stroke-linecap="round" stroke-linejoin="round" stroke-miterlimit="10" x1="-53.9" y1="91.9" x2="-58.1" y2="96.1"/>
	
		<line fill="none" stroke="#FFFFFF" stroke-width="2" stroke-linecap="round" stroke-linejoin="round" stroke-miterlimit="10" x1="-59.9" y1="91.9" x2="-64.1" y2="96.1"/>
	
		<line fill="none" stroke="#FFFFFF" stroke-width="2" stroke-linecap="round" stroke-linejoin="round" stroke-miterlimit="10" x1="-47.9" y1="91.9" x2="-52.1" y2="96.1"/>
	
		<path fill="#FFFFFF" stroke="#FFFFFF" stroke-width="2" stroke-linecap="round" stroke-linejoin="round" stroke-miterlimit="10" d="
		M-39,107v6.1h2c2.2,0,4,1.6,4,3.5v6.9c0,1.9-1.8,3.5-4,3.5h-2v6.1h4c4.4,0,8-3.1,8-6.9v-12.1c0-3.8-3.6-6.9-8-6.9H-39z"/>
</g>
</svg>
